<svg xmlns="http://www.w3.org/2000/svg" xmlns:xlink="http://www.w3.org/1999/xlink" xmlns:lucid="lucid" width="1298" height="589.72"><g transform="translate(-899.4999975615876 158.45453684611425)" lucid:page-tab-id="0_0"><path d="M0-500h2500v1500H0z" fill="#fafafa"/><path d="M1661.5 400.96c0 4.86-40.52 8.8-90.5 8.8s-90.5-3.94-90.5-8.8v-70.4c0-4.86 40.52-8.8 90.5-8.8s90.5 3.94 90.5 8.8z" stroke="#5e5e5e" stroke-width="3" fill="#fff"/><path d="M1661.5 330.56c0 4.86-40.52 8.8-90.5 8.8s-90.5-3.94-90.5-8.8" stroke="#5e5e5e" stroke-width="3" fill="none"/><use xlink:href="#a" transform="matrix(1,0,0,1,1492.5,351.3603580532278) translate(9.487654320987673 26.59027777777778)"/><use xlink:href="#b" transform="matrix(1,0,0,1,1492.5,351.3603580532278) translate(62.51234567901236 26.59027777777778)"/><use xlink:href="#c" transform="matrix(1,0,0,1,1492.5,351.3603580532278) translate(133.99382716049382 26.59027777777778)"/><path d="M1205 118c0 44.18-35.82 80-80 80s-80-35.82-80-80 35.82-80 80-80 80 35.82 80 80z" stroke="#5e5e5e" stroke-width="3" fill="#fff"/><use xlink:href="#d" transform="matrix(1,0,0,1,1057,50) translate(34.111111111111114 73.02777777777777)"/><use xlink:href="#e" transform="matrix(1,0,0,1,1057,50) translate(87.07407407407408 73.02777777777777)"/><path d="M2061 118c0 44.18-35.82 80-80 80s-80-35.82-80-80 35.82-80 80-80 80 35.82 80 80z" stroke="#5e5e5e" stroke-width="3" fill="#fff"/><use xlink:href="#d" transform="matrix(1,0,0,1,1913,50) translate(34.111111111111114 73.02777777777777)"/><use xlink:href="#f" transform="matrix(1,0,0,1,1913,50) translate(87.07407407407408 73.02777777777777)"/><path d="M1102 400.96c0 4.86-40.52 8.8-90.5 8.8s-90.5-3.94-90.5-8.8v-70.4c0-4.86 40.52-8.8 90.5-8.8s90.5 3.94 90.5 8.8z" stroke="#5e5e5e" stroke-width="3" fill="#fff"/><path d="M1102 330.56c0 4.86-40.52 8.8-90.5 8.8s-90.5-3.94-90.5-8.8" stroke="#5e5e5e" stroke-width="3" fill="none"/><use xlink:href="#g" transform="matrix(1,0,0,1,933,351.3603580532278) translate(33.46913580246913 26.59027777777778)"/><use xlink:href="#h" transform="matrix(1,0,0,1,933,351.3603580532278) translate(111.18518518518519 26.59027777777778)"/><path d="M2176 384.96c0 4.86-40.52 8.8-90.5 8.8s-90.5-3.94-90.5-8.8v-70.4c0-4.86 40.52-8.8 90.5-8.8s90.5 3.94 90.5 8.8z" stroke="#5e5e5e" stroke-width="3" fill="#fff"/><path d="M2176 314.56c0 4.86-40.52 8.8-90.5 8.8s-90.5-3.94-90.5-8.8" stroke="#5e5e5e" stroke-width="3" fill="none"/><use xlink:href="#g" transform="matrix(1,0,0,1,2007,335.3603580532278) translate(33.46913580246913 26.59027777777778)"/><use xlink:href="#h" transform="matrix(1,0,0,1,2007,335.3603580532278) translate(111.18518518518519 26.59027777777778)"/><path d="M2083.53 267.2l1.1 7.03.9 7.8.26 3.67-2 .15-.26-3.62-.9-7.73-1.08-6.94-1-4.95h2.05m-36.38-71.5l7.24 9.33 5.48 7.72 4.4 6.76 3.64 6.2 3.1 5.8 2.7 5.57 2.36 5.48 1.28 3.33h-2.15l-.98-2.58-2.35-5.4-2.65-5.5-3.07-5.73-3.6-6.1-4.34-6.7-5.44-7.64-7.2-9.28-9.97-11.78 1.52-1.3" fill="#e81313"/><path d="M2036.24 179.3l-1.53 1.3-.64-.78 1.5-1.32M2085.38 301.03l-5.18-14.08 9.26-.36z" fill="#e81313"/><path d="M2085.5 304.26l-6.7-18.26 12-.46m-9.2 2.35l3.65 9.9 2.88-10.15" fill="#e81313"/><use xlink:href="#i" transform="matrix(1,0,0,1,2025.2642731672906,241.28076167861286) translate(0 14.222222222222223)"/><path d="M2128.08 221.93l3 4.7 2.7 4.65 2.46 4.64 2.2 4.65 2 4.7 1.8 4.73 1.58 4.82 1.4 4.93 1.2 5.06 1.02 5.24.82 5.4.62 5.66.4 5.9.15 6.24-.12 6.6-.34 6.03-2-.12.35-5.98.13-6.52-.16-6.15-.4-5.83-.6-5.56-.8-5.32-1-5.14-1.2-4.98-1.36-4.85-1.56-4.74-1.75-4.66-1.97-4.6-2.18-4.6-2.4-4.55-2.68-4.58-2.96-4.62-3.27-4.7-.58-.75h2.5m-49.77-46.32l5.07 3.65h-3.42l-2.78-2-6.88-4.52 1.1-1.66" fill="#e81313"/><path d="M2148.96 305.84l-.06 1.05-2-.17.06-1M2069.44 163.12l-4.93 7.85-9.6-11.5z" fill="#e81313"/><path d="M2071.02 162.48l-6.4 10.2-12.47-14.94m12.24 11.53l3.46-5.52-10.23-2.57" fill="#e81313"/><use xlink:href="#j" transform="matrix(1,0,0,1,2073.3159257082107,174.93258377669744) translate(0.004999999999999005 14.222222222222223)"/><use xlink:href="#k" transform="matrix(1,0,0,1,2073.3159257082107,174.93258377669744) translate(6.079074074074075 35.55555555555556)"/><path d="M1661.5 319.44c0 4.86-40.52 8.8-90.5 8.8s-90.5-3.94-90.5-8.8v-70.4c0-4.86 40.52-8.8 90.5-8.8s90.5 3.94 90.5 8.8z" stroke="#5e5e5e" stroke-width="3" fill="#fff"/><path d="M1661.5 249.04c0 4.86-40.52 8.8-90.5 8.8s-90.5-3.94-90.5-8.8" stroke="#5e5e5e" stroke-width="3" fill="none"/><use xlink:href="#a" transform="matrix(1,0,0,1,1492.5,269.838447141901) translate(8.83950617283952 26.59027777777778)"/><use xlink:href="#b" transform="matrix(1,0,0,1,1492.5,269.838447141901) translate(61.86419753086421 26.59027777777778)"/><use xlink:href="#l" transform="matrix(1,0,0,1,1492.5,269.838447141901) translate(133.34567901234567 26.59027777777778)"/><path d="M1661.5 240.44c0 4.86-40.52 8.8-90.5 8.8s-90.5-3.94-90.5-8.8v-70.4c0-4.86 40.52-8.8 90.5-8.8s90.5 3.94 90.5 8.8z" stroke="#5e5e5e" stroke-width="3" fill="#fff"/><path d="M1661.5 170.04c0 4.86-40.52 8.8-90.5 8.8s-90.5-3.94-90.5-8.8" stroke="#5e5e5e" stroke-width="3" fill="none"/><use xlink:href="#a" transform="matrix(1,0,0,1,1492.5,190.83844714190096) translate(8.83950617283952 26.59027777777778)"/><use xlink:href="#b" transform="matrix(1,0,0,1,1492.5,190.83844714190096) translate(61.86419753086421 26.59027777777778)"/><use xlink:href="#m" transform="matrix(1,0,0,1,1492.5,190.83844714190096) translate(133.34567901234567 26.59027777777778)"/><path d="M1149.64 201.85l1.87 5.04 1.92 4.54 1.95 4.13 1.97 3.77 2 3.47 2.03 3.2 2.06 2.97 2.1 2.77 2.13 2.58 2.18 2.42 2.23 2.27 2.3 2.16 2.34 2.03 2.44 1.9 2.52 1.84 2.6 1.74 2.74 1.65 2.86 1.57 3 1.5 3.18 1.4 3.38 1.34 3.62 1.26 3.88 1.17 4.02 1.03v2.05l-.26-.05-4.3-1.1-3.96-1.2-3.7-1.3-3.45-1.35-3.26-1.45-3.07-1.53-2.93-1.6-2.8-1.7-2.68-1.8-2.6-1.86-2.48-1.97-2.42-2.08-2.35-2.2-2.28-2.35-2.25-2.48-2.2-2.64-2.13-2.83-2.1-3.03-2.1-3.27-2.03-3.54-2.02-3.84-1.98-4.2-1.95-4.63-1.9-5.12-1.54-4.73 1.92-.6m312.43 35.42l-1.66.06-16.77 1.42-21.7 2.77-90.68 17.26v-2.03l90.35-17.2 21.82-2.78 16.84-1.44 1.7-.07M1148.12 197.18l-1.9.62-.32-1 1.9-.57M1475.77 231.1l-14.1 5.1-.3-9.28z" fill="#fa7811"/><path d="M1479 231l-18.3 6.6-.38-12.02m2.3 9.2l9.9-3.57-10.1-2.93" fill="#fa7811"/><use xlink:href="#n" transform="matrix(1,0,0,1,1210.9396071391523,241.2607535474166) translate(0 14.222222222222223)"/><use xlink:href="#o" transform="matrix(1,0,0,1,1210.9396071391523,241.2607535474166) translate(0 35.55555555555556)"/><use xlink:href="#p" transform="matrix(1,0,0,1,1210.9396071391523,241.2607535474166) translate(67.95061728395063 35.55555555555556)"/><path d="M1188.86 199.2l3.87 3.48 3.83 3.17 3.8 2.88 3.77 2.62 3.78 2.4 3.82 2.2 3.85 2.02 3.9 1.84 4 1.7 4.1 1.5 4.25 1.4 4.4 1.22 4.63 1.08 4.88.93 5.2.77 5.57.58 6.07.38 6.7.14 7.54-.16 8.7-.55 9.84-1.05v2l-9.66 1.03-8.8.56-7.6.16-6.8-.14-6.15-.38-5.66-.6-5.27-.77-4.96-.94-4.7-1.1-4.5-1.25-4.32-1.4-4.18-1.55-4.08-1.72-3.98-1.87-3.93-2.05-3.88-2.23-3.85-2.45-3.85-2.67-3.86-2.93-3.87-3.22-3.94-3.55-2.57-2.5 1.4-1.43m291.7 1.8l-10.83.22-13 .82-14.82 1.57-17.88 2.65-25.13 4.84-20.2 4.44V211l19.8-4.34 25.2-4.85 17.96-2.66 14.9-1.57 13.08-.83 10.88-.23" fill="#fa7811"/><path d="M1479 198.5h-1l-.05-2h1.05M1188.44 193.6l-6.93 6.17-6-13.74z" fill="#fa7811"/><path d="M1190.13 193.45l-8.98 7.98-7.8-17.82m8.52 14.5l4.88-4.32-9.1-5.33" fill="#fa7811"/><use xlink:href="#q" transform="matrix(1,0,0,1,1295.3413620438407,199.57916653713767) translate(0.005000000000002558 14.222222222222223)"/><use xlink:href="#k" transform="matrix(1,0,0,1,1295.3413620438407,199.57916653713767) translate(14.992654320987661 35.55555555555556)"/><path d="M1642.5 104.77c0 7.86-32 14.23-71.5 14.23s-71.5-6.37-71.5-14.23V-9.1c0-7.86 32-14.23 71.5-14.23s71.5 6.37 71.5 14.23z" stroke="#5e5e5e" stroke-width="3" fill="#fff"/><path d="M1642.5-9.1c0 7.86-32 14.23-71.5 14.23s-71.5-6.37-71.5-14.23" stroke="#5e5e5e" stroke-width="3" fill="none"/><use xlink:href="#r" transform="matrix(1,0,0,1,1511.5,17.13333333333334) translate(13.913580246913583 37.46527777777778)"/><use xlink:href="#s" transform="matrix(1,0,0,1,1511.5,17.13333333333334) translate(26.845679012345684 64.13194444444446)"/><path d="M1949.64 194.33l-1.93 4.2-2.36 4.63-2.36 4.18-2.38 3.82-2.38 3.5-2.4 3.22-2.42 2.97-2.44 2.77-2.48 2.57-2.52 2.4-2.56 2.25-2.62 2.12-2.7 2-2.77 1.87-2.86 1.77-2.97 1.68-3.1 1.57-3.26 1.48-3.42 1.4-3.62 1.3-3.87 1.2-4.16 1.1-4.5 1-1.5.26v-2.04l1.12-.2 4.4-.97 4.07-1.1 3.8-1.18 3.54-1.27 3.35-1.35 3.18-1.45 3.03-1.54 2.9-1.62 2.8-1.72 2.7-1.83 2.62-1.95 2.56-2.06 2.5-2.2 2.47-2.35 2.42-2.5 2.38-2.7 2.36-2.92 2.35-3.15 2.33-3.43 2.33-3.75 2.32-4.1 2.33-4.56 1.92-4.17m-252.54 34.16l20.73 2.46 60.38 10.3 23.93 3.95v2.03l-24.25-4.02-60.33-10.28-20.63-2.45-13.7-1.04.16-1.98" fill="#fa7811"/><path d="M1950.07 193.4l-.44.95-1.82-.83.43-.92M1680.34 232.2l-14.1-5.1 14.4-4.15z" fill="#fa7811"/><path d="M1681.3 233.62L1663 227l18.7-5.4m-12.23 5.6l9.9 3.6.23-6.5" fill="#fa7811"/><use xlink:href="#t" transform="matrix(1,0,0,1,1800.3078921383383,239.77581764789227) translate(0 14.222222222222223)"/><path d="M1675.36 191.37l13.8.88 16.27 1.72 22.26 3.32 69.36 12.25v2.03l-69.7-12.3-22.18-3.33-16.2-1.7-13.7-.88-11.3-.24.04-2m246.73-1.88l-3.9 2.96-4.3 3-4.26 2.7-4.24 2.44-4.24 2.22-4.26 2-4.32 1.82-3.34 1.24v-2.13l2.6-.98 4.24-1.78 4.2-1.98 4.16-2.17 4.16-2.4 4.18-2.67 4.23-2.94 3.87-2.95" fill="#fa7811"/><path d="M1664.05 191.13l-.04 2-1-.02v-2M1913.97 191.24l-6.2-6.9 13.73-6.07z" fill="#fa7811"/><path d="M1914.14 192.93l-8.02-8.95 17.8-7.87m-14.47 8.6l4.35 4.85 5.3-9.12" fill="#fa7811"/><use xlink:href="#q" transform="matrix(1,0,0,1,1797.0619400353278,192.4104614833681) translate(0.005000000000002558 14.222222222222223)"/><use xlink:href="#k" transform="matrix(1,0,0,1,1797.0619400353278,192.4104614833681) translate(14.992654320987661 35.55555555555556)"/><path d="M985.7 295.22l-.67 4.17-.35 3.07-2-.22.37-3.13.67-4.25.67-3.36h2.03m85.62-110.22l-10.1 10.97-47.45 47.96-5.2 6.18-4.05 5.2-3.3 4.66-2.8 4.3-2.38 4.05-2.1 3.88-.8 1.7h-2.23l1.26-2.6 2.13-3.97 2.43-4.12 2.83-4.36 3.34-4.72 4.1-5.28 5.3-6.27 47.47-47.98 10.08-10.95" fill="#e81313"/><path d="M1072.75 180.52l-.72.78-1.47-1.36.68-.73M988.3 303.46l-5 14.14-4.28-14.38z" fill="#e81313"/><path d="M989.7 302.5l-6.5 18.34-5.53-18.65m5.7 12.17l3.52-9.95-6.53-.16" fill="#e81313"/><use xlink:href="#i" transform="matrix(1,0,0,1,934.7304100503827,270.1799807955994) translate(0 14.222222222222223)"/><path d="M1063.8 259.2l-4.5 8-3.05 5.96-2.35 5.16-1.93 4.74-1.63 4.54-1.38 4.44-1.18 4.44-1 4.5-.83 4.65-.66 4.86-.5 5.12-.22 4.5-2-.1.24-4.55.48-5.2.67-4.95.84-4.73 1.03-4.6 1.2-4.52 1.42-4.52 1.65-4.6 1.96-4.83 2.4-5.24 3.07-6.05 4.14-7.35h2.3m27.3-46.72l-.22.5-1.8 3.55H1087l2.25-4.43.2-.45" fill="#e81313"/><path d="M1044.58 320.1l-.05 1-2-.04.06-1.06M1095.03 212.65l-8.55-3.6 9.8-11.35z" fill="#e81313"/><path d="M1095.9 214.1l-11.08-4.66 12.7-14.73m-9.38 13.96l6 2.53.9-10.52" fill="#e81313"/><use xlink:href="#j" transform="matrix(1,0,0,1,1044.1453275632903,216.2297139633546) translate(0.004999999999999005 14.222222222222223)"/><use xlink:href="#k" transform="matrix(1,0,0,1,1044.1453275632903,216.2297139633546) translate(6.079074074074075 35.55555555555556)"/><path d="M1900.14 5.53l11.45 12.9 10.85 13.33 2.54 3.4-1.6 1.2-2.52-3.37-10.8-13.27-11.4-12.84-4.24-4.4h2.78m-683.5-3.55l-11.34 12.42-10.78 12.84-9.22 12-1.6-1.23 9.26-12 10.84-12.92 10.32-11.3h2.72m458.2-123.82l20.32 5.37 19.8 6.14 19.26 6.85 18.63 7.52 18 8.17 17.34 8.75 16.66 9.3 16 9.85 15.3 10.33 14.64 10.8 13.98 11.24 13.33 11.67.24.23h-3.02l-11.84-10.37-13.9-11.2-14.58-10.73-15.25-10.3-15.9-9.78-16.6-9.28-17.27-8.73-17.9-8.14-18.57-7.5-19.18-6.82-19.73-6.1-20.26-5.37-15.3-3.36h1.76v-1.65m-140.8-8.22l-17.14 1.32-21.24 2.53-20.9 3.38-20.47 4.2-20 4.98-19.45 5.72-18.87 6.42-18.26 7.08-17.62 7.7-16.98 8.27-16.32 8.82-15.66 9.33-15.02 9.82L1265-46.52 1251.3-35.8l-13.12 11.17-2.22 2.05H1233l3.83-3.55 13.18-11.2 13.8-10.8 14.45-10.32 15.08-9.87 15.74-9.37 16.4-8.85 17.04-8.3 17.7-7.74 18.35-7.1 18.95-6.45 19.53-5.74 20.08-5 20.56-4.2 20.98-3.4 21.33-2.54 17.34-1.33" fill="#58c2bf"/><path d="M1184.78 39.08l-12.04 8.94 4.5-14.32z" fill="#fff"/><path d="M1186.48 39.06l-15.62 11.6 5.82-18.57m-2.07 13.28l8.48-6.3-5.3-3.76" fill="#58c2bf"/><path d="M1933.23 48.05l-12.18-8.75 7.47-5.5z" fill="#fff"/><path d="M1935.15 50.66l-15.8-11.35 9.7-7.1m-6.3 7.1l8.56 6.14-3.3-10" fill="#58c2bf"/><use xlink:href="#u" transform="matrix(1,0,0,1,1517.3078602179028,-147.82385876912036) translate(0 14.222222222222223)"/><use xlink:href="#v" transform="matrix(1,0,0,1,1517.3078602179028,-147.82385876912036) translate(43.35802469135803 14.222222222222223)"/><use xlink:href="#w" transform="matrix(1,0,0,1,1863.689131496463,-18.828114519105377) translate(0 14.222222222222223)"/><use xlink:href="#x" transform="matrix(1,0,0,1,1201.1076299478095,-22.58198638713511) translate(0 14.222222222222223)"/><path d="M1240.96 70.5l-12.93 4.07-13.65 4.95-13.74 5.64-.76-1.85 13.78-5.65 13.73-4.97 13-4.1 1.4-.4h7.68m242.05-3.2h4.66l-.02 2h-4.7l-37.4-2.28v-2" fill="#1071e5"/><path d="M1200.66 85.15l-.93.38-.8-1.83.97-.4M1498 66l-19.06 10.36-.95-1.76 16.07-8.74-15.4-9.9 1.07-1.67" fill="#1071e5"/><use xlink:href="#y" transform="matrix(1,0,0,1,1239.6549927455121,46.86096462435022) translate(0 14.222222222222223)"/><path d="M1880.94 67.75l8.92 3.4 9.3 4 8.9 4.27-.86 1.8-8.87-4.26-9.22-3.96-8.84-3.36-7.32-2.44h6.33m-188.12 0h11.08l-19.8 2.27-22.17 1.25-14.43.25-.03-2 14.4-.25 22.05-1.24 8.9-1.02" fill="#1071e5"/><path d="M1909 79.86l-.92 1.78-.9-.43.86-1.8M1663.52 60.34l-15.6 9.6 15.93 9.03-1 1.74L1644 70l18.47-11.37" fill="#1071e5"/><g><use xlink:href="#y" transform="matrix(1,0,0,1,1691.1521492338702,45.86520082430941) translate(0 14.222222222222223)"/></g><path d="M1857.54 98.84l41.2 5.97-.28 2-41.17-5.97-29.2-3.1v-2m-111.05-4.16v2L1645 93v-2" fill="#1071e5"/><path d="M1645.04 91l-.02 2H1644v-2M1900.4 106.06l-20.06 8.25-.76-1.84 16.93-6.96-14.25-11.48 1.26-1.56" fill="#1071e5"/><g><use xlink:href="#z" transform="matrix(1,0,0,1,1717.0469996195577,71.67172492937274) translate(12.227222222222231 14.222222222222223)"/><use xlink:href="#A" transform="matrix(1,0,0,1,1717.0469996195577,71.67172492937274) translate(0.005000000000002558 35.55555555555556)"/><use xlink:href="#B" transform="matrix(1,0,0,1,1717.0469996195577,71.67172492937274) translate(44.40006172839507 35.55555555555556)"/><use xlink:href="#C" transform="matrix(1,0,0,1,1717.0469996195577,71.67172492937274) translate(67.06672839506174 35.55555555555556)"/></g><path d="M1297.03 113.56l-4.5.67-22.6 2.37-27.18 1.68-34.4.68-.05-2 34.37-.68 27.08-1.68 22.52-2.35 4.76-.7m200-23.53l-35.2.7-27.08 1.68-22.52 2.35-4.78.7v-2l4.53-.68 22.6-2.37 27.17-1.68 35.23-.7" fill="#1071e5"/><path d="M1498 88l-1 .02-.05-2L1498 86M1226 108.3l-15.57 9.62 15.94 9-1 1.75L1206.5 118l18.45-11.4" fill="#1071e5"/><g><use xlink:href="#z" transform="matrix(1,0,0,1,1297.0332232701408,81.13963744259306) translate(11.906234567901244 14.222222222222223)"/><use xlink:href="#A" transform="matrix(1,0,0,1,1297.0332232701408,81.13963744259306) translate(0.005000000000002558 35.55555555555556)"/><use xlink:href="#D" transform="matrix(1,0,0,1,1297.0332232701408,81.13963744259306) translate(44.40006172839507 35.55555555555556)"/><use xlink:href="#E" transform="matrix(1,0,0,1,1297.0332232701408,81.13963744259306) translate(67.06672839506174 35.55555555555556)"/></g><path d="M1260.74 28.5l-9.46 3.9-9.47 4.4-9.57 4.97-9.8 5.6-10.13 6.36-10.6 7.3-10.45 7.85-1.2-1.6 10.47-7.87 10.68-7.34 10.2-6.4 9.88-5.65 9.65-4.98 9.54-4.44 9.54-3.95 3.04-1.1h5.8M1496.2 9.95l-.04 2-109.94-2.28-27.27.4-10.32.58v-2l10.25-.6 27.35-.38" fill="#58c2bf"/><path d="M1191.27 68.86l-.8.6-1.24-1.56.84-.63M1498 11l-18.9 10.65-.98-1.74 15.95-8.98-15.56-9.65 1.06-1.7" fill="#58c2bf"/><g><use xlink:href="#F" transform="matrix(1,0,0,1,1261.36789510169,4.183884854119363) translate(0 14.222222222222223)"/><use xlink:href="#G" transform="matrix(1,0,0,1,1261.36789510169,4.183884854119363) translate(56.19753086419754 14.222222222222223)"/></g><path d="M1836.93 9.24l7.57 1.77 7.13 2 6.8 2.2 6.55 2.45 6.37 2.67 6.24 2.94 6.16 3.23 6.14 3.53 6.14 3.9 6.2 4.3 6.3 4.8 6.46 5.34 6.63 5.98 2.66 2.55-1.4 1.44-2.63-2.53-6.58-5.92-6.4-5.28-6.23-4.74-6.13-4.26-6.08-3.86-6.06-3.5-6.1-3.2-6.16-2.9-6.3-2.63-6.47-2.4-6.72-2.18-7.05-1.97-7.5-1.75-1.35-.26V8.9m-87.26-.66l-75.03 4.12-27.85.62-.04-2 27.8-.62 75.1-4.12" fill="#58c2bf"/><path d="M1645.05 12.98L1644 13v-2l1-.02M1924.9 58.88l-19.33-4.1V52.7l16.44 3.5-5.28-17.53 1.92-.6" fill="#58c2bf"/><g><use xlink:href="#F" transform="matrix(1,0,0,1,1747.8879780732816,-5.213353516214638) translate(0 14.222222222222223)"/><use xlink:href="#G" transform="matrix(1,0,0,1,1747.8879780732816,-5.213353516214638) translate(56.19753086419754 14.222222222222223)"/></g><defs><path fill="#333" d="M30-248c118-7 216 8 213 122C240-48 200 0 122 0H30v-248zM63-27c89 8 146-16 146-99s-60-101-146-95v194" id="H"/><path fill="#333" d="M141-36C126-15 110 5 73 4 37 3 15-17 15-53c-1-64 63-63 125-63 3-35-9-54-41-54-24 1-41 7-42 31l-33-3c5-37 33-52 76-52 45 0 72 20 72 64v82c-1 20 7 32 28 27v20c-31 9-61-2-59-35zM48-53c0 20 12 33 32 33 41-3 63-29 60-74-43 2-92-5-92 41" id="I"/><path fill="#333" d="M59-47c-2 24 18 29 38 22v24C64 9 27 4 27-40v-127H5v-23h24l9-43h21v43h35v23H59v120" id="J"/><g id="a"><use transform="matrix(0.06172839506172839,0,0,0.06172839506172839,0,0)" xlink:href="#H"/><use transform="matrix(0.06172839506172839,0,0,0.06172839506172839,15.987654320987653,0)" xlink:href="#I"/><use transform="matrix(0.06172839506172839,0,0,0.06172839506172839,28.333333333333332,0)" xlink:href="#J"/><use transform="matrix(0.06172839506172839,0,0,0.06172839506172839,34.50617283950617,0)" xlink:href="#I"/></g><path fill="#333" d="M185-189c-5-48-123-54-124 2 14 75 158 14 163 119 3 78-121 87-175 55-17-10-28-26-33-46l33-7c5 56 141 63 141-1 0-78-155-14-162-118-5-82 145-84 179-34 5 7 8 16 11 25" id="K"/><path fill="#333" d="M100-194c63 0 86 42 84 106H49c0 40 14 67 53 68 26 1 43-12 49-29l28 8c-11 28-37 45-77 45C44 4 14-33 15-96c1-61 26-98 85-98zm52 81c6-60-76-77-97-28-3 7-6 17-6 28h103" id="L"/><path fill="#333" d="M114-163C36-179 61-72 57 0H25l-1-190h30c1 12-1 29 2 39 6-27 23-49 58-41v29" id="M"/><path fill="#333" d="M108 0H70L1-190h34L89-25l56-165h34" id="N"/><g id="b"><use transform="matrix(0.06172839506172839,0,0,0.06172839506172839,0,0)" xlink:href="#K"/><use transform="matrix(0.06172839506172839,0,0,0.06172839506172839,14.814814814814813,0)" xlink:href="#L"/><use transform="matrix(0.06172839506172839,0,0,0.06172839506172839,27.160493827160494,0)" xlink:href="#M"/><use transform="matrix(0.06172839506172839,0,0,0.06172839506172839,34.50617283950617,0)" xlink:href="#N"/><use transform="matrix(0.06172839506172839,0,0,0.06172839506172839,45.61728395061728,0)" xlink:href="#L"/><use transform="matrix(0.06172839506172839,0,0,0.06172839506172839,57.962962962962955,0)" xlink:href="#M"/></g><path fill="#333" d="M209 0H11v-25l151-195H24v-28h176v25L50-27h159V0" id="O"/><use transform="matrix(0.06172839506172839,0,0,0.06172839506172839,0,0)" xlink:href="#O" id="c"/><path fill="#333" d="M232-93c-1 65-40 97-104 97C67 4 28-28 28-90v-158h33c8 89-33 224 67 224 102 0 64-133 71-224h33v155" id="P"/><path fill="#333" d="M135-143c-3-34-86-38-87 0 15 53 115 12 119 90S17 21 10-45l28-5c4 36 97 45 98 0-10-56-113-15-118-90-4-57 82-63 122-42 12 7 21 19 24 35" id="Q"/><g id="d"><use transform="matrix(0.06172839506172839,0,0,0.06172839506172839,0,0)" xlink:href="#P"/><use transform="matrix(0.06172839506172839,0,0,0.06172839506172839,15.987654320987653,0)" xlink:href="#Q"/><use transform="matrix(0.06172839506172839,0,0,0.06172839506172839,27.098765432098766,0)" xlink:href="#L"/><use transform="matrix(0.06172839506172839,0,0,0.06172839506172839,39.44444444444444,0)" xlink:href="#M"/></g><path fill="#333" d="M205 0l-28-72H64L36 0H1l101-248h38L239 0h-34zm-38-99l-47-123c-12 45-31 82-46 123h93" id="R"/><use transform="matrix(0.06172839506172839,0,0,0.06172839506172839,0,0)" xlink:href="#R" id="e"/><path fill="#333" d="M160-131c35 5 61 23 61 61C221 17 115-2 30 0v-248c76 3 177-17 177 60 0 33-19 50-47 57zm-97-11c50-1 110 9 110-42 0-47-63-36-110-37v79zm0 115c55-2 124 14 124-45 0-56-70-42-124-44v89" id="S"/><use transform="matrix(0.06172839506172839,0,0,0.06172839506172839,0,0)" xlink:href="#S" id="f"/><path fill="#333" d="M33 0v-248h34V0H33" id="T"/><path fill="#333" d="M85-194c31 0 48 13 60 33l-1-100h32l1 261h-30c-2-10 0-23-3-31C134-8 116 4 85 4 32 4 16-35 15-94c0-66 23-100 70-100zm9 24c-40 0-46 34-46 75 0 40 6 74 45 74 42 0 51-32 51-76 0-42-9-74-50-73" id="U"/><path fill="#333" d="M117-194c89-4 53 116 60 194h-32v-121c0-31-8-49-39-48C34-167 62-67 57 0H25l-1-190h30c1 10-1 24 2 32 11-22 29-35 61-36" id="V"/><path fill="#333" d="M24-231v-30h32v30H24zM24 0v-190h32V0H24" id="W"/><path fill="#333" d="M179-190L93 31C79 59 56 82 12 73V49c39 6 53-20 64-50L1-190h34L92-34l54-156h33" id="X"/><g id="g"><use transform="matrix(0.06172839506172839,0,0,0.06172839506172839,0,0)" xlink:href="#T"/><use transform="matrix(0.06172839506172839,0,0,0.06172839506172839,6.172839506172839,0)" xlink:href="#U"/><use transform="matrix(0.06172839506172839,0,0,0.06172839506172839,18.51851851851852,0)" xlink:href="#L"/><use transform="matrix(0.06172839506172839,0,0,0.06172839506172839,30.864197530864196,0)" xlink:href="#V"/><use transform="matrix(0.06172839506172839,0,0,0.06172839506172839,43.20987654320987,0)" xlink:href="#J"/><use transform="matrix(0.06172839506172839,0,0,0.06172839506172839,49.382716049382715,0)" xlink:href="#W"/><use transform="matrix(0.06172839506172839,0,0,0.06172839506172839,54.25925925925926,0)" xlink:href="#J"/><use transform="matrix(0.06172839506172839,0,0,0.06172839506172839,60.4320987654321,0)" xlink:href="#X"/></g><path fill="#333" d="M27 0v-27h64v-190l-56 39v-29l58-41h29v221h61V0H27" id="Y"/><use transform="matrix(0.06172839506172839,0,0,0.06172839506172839,0,0)" xlink:href="#Y" id="h"/><path fill="#333" d="M199 0l-22-63H83L61 0H9l90-248h61L250 0h-51zm-33-102l-36-108c-10 38-24 72-36 108h72" id="Z"/><path fill="#333" d="M85 4C-2 5 27-109 22-190h50c7 57-23 150 33 157 60-5 35-97 40-157h50l1 190h-47c-2-12 1-28-3-38-12 25-28 42-61 42" id="aa"/><path fill="#333" d="M115-3C79 11 28 4 28-45v-112H4v-33h27l15-45h31v45h36v33H77v99c-1 23 16 31 38 25v30" id="ab"/><path fill="#333" d="M114-157C55-157 80-60 75 0H25v-261h50l-1 109c12-26 28-41 61-42 86-1 58 113 63 194h-50c-7-57 23-157-34-157" id="ac"/><path fill="#333" d="M185-48c-13 30-37 53-82 52C43 2 14-33 14-96s30-98 90-98c62 0 83 45 84 108H66c0 31 8 55 39 56 18 0 30-7 34-22zm-45-69c5-46-57-63-70-21-2 6-4 13-4 21h74" id="ad"/><path fill="#333" d="M135-194c87-1 58 113 63 194h-50c-7-57 23-157-34-157-59 0-34 97-39 157H25l-1-190h47c2 12-1 28 3 38 12-26 28-41 61-42" id="ae"/><path fill="#333" d="M25-224v-37h50v37H25zM25 0v-190h50V0H25" id="af"/><path fill="#333" d="M190-63c-7 42-38 67-86 67-59 0-84-38-90-98-12-110 154-137 174-36l-49 2c-2-19-15-32-35-32-30 0-35 28-38 64-6 74 65 87 74 30" id="ag"/><path fill="#333" d="M133-34C117-15 103 5 69 4 32 3 11-16 11-54c-1-60 55-63 116-61 1-26-3-47-28-47-18 1-26 9-28 27l-52-2c7-38 36-58 82-57s74 22 75 68l1 82c-1 14 12 18 25 15v27c-30 8-71 5-69-32zm-48 3c29 0 43-24 42-57-32 0-66-3-65 30 0 17 8 27 23 27" id="ah"/><g id="i"><use transform="matrix(0.04938271604938272,0,0,0.04938271604938272,0,0)" xlink:href="#Z"/><use transform="matrix(0.04938271604938272,0,0,0.04938271604938272,12.790123456790125,0)" xlink:href="#aa"/><use transform="matrix(0.04938271604938272,0,0,0.04938271604938272,23.60493827160494,0)" xlink:href="#ab"/><use transform="matrix(0.04938271604938272,0,0,0.04938271604938272,29.481481481481485,0)" xlink:href="#ac"/><use transform="matrix(0.04938271604938272,0,0,0.04938271604938272,40.2962962962963,0)" xlink:href="#ad"/><use transform="matrix(0.04938271604938272,0,0,0.04938271604938272,50.17283950617284,0)" xlink:href="#ae"/><use transform="matrix(0.04938271604938272,0,0,0.04938271604938272,60.98765432098766,0)" xlink:href="#ab"/><use transform="matrix(0.04938271604938272,0,0,0.04938271604938272,66.8641975308642,0)" xlink:href="#af"/><use transform="matrix(0.04938271604938272,0,0,0.04938271604938272,71.80246913580248,0)" xlink:href="#ag"/><use transform="matrix(0.04938271604938272,0,0,0.04938271604938272,81.67901234567903,0)" xlink:href="#ah"/><use transform="matrix(0.04938271604938272,0,0,0.04938271604938272,91.55555555555557,0)" xlink:href="#ab"/><use transform="matrix(0.04938271604938272,0,0,0.04938271604938272,97.43209876543212,0)" xlink:href="#ad"/></g><path fill="#333" d="M24 0v-248h52V0H24" id="ai"/><path fill="#333" d="M88-194c31-1 46 15 58 34l-1-101h50l1 261h-48c-2-10 0-23-3-31C134-8 116 4 84 4 32 4 16-41 15-95c0-56 19-97 73-99zm17 164c33 0 40-30 41-66 1-37-9-64-41-64s-38 30-39 65c0 43 13 65 39 65" id="aj"/><path fill="#333" d="M123 10C108 53 80 86 19 72V37c35 8 53-11 59-39L3-190h52l48 148c12-52 28-100 44-148h51" id="ak"/><g id="j"><use transform="matrix(0.04938271604938272,0,0,0.04938271604938272,0,0)" xlink:href="#ai"/><use transform="matrix(0.04938271604938272,0,0,0.04938271604938272,4.938271604938272,0)" xlink:href="#aj"/><use transform="matrix(0.04938271604938272,0,0,0.04938271604938272,15.753086419753087,0)" xlink:href="#ad"/><use transform="matrix(0.04938271604938272,0,0,0.04938271604938272,25.629629629629633,0)" xlink:href="#ae"/><use transform="matrix(0.04938271604938272,0,0,0.04938271604938272,36.44444444444445,0)" xlink:href="#ab"/><use transform="matrix(0.04938271604938272,0,0,0.04938271604938272,42.320987654320994,0)" xlink:href="#af"/><use transform="matrix(0.04938271604938272,0,0,0.04938271604938272,47.25925925925927,0)" xlink:href="#ab"/><use transform="matrix(0.04938271604938272,0,0,0.04938271604938272,53.135802469135804,0)" xlink:href="#ak"/></g><path fill="#333" d="M136-208V0H84v-208H4v-40h212v40h-80" id="al"/><path fill="#333" d="M110-194c64 0 96 36 96 99 0 64-35 99-97 99-61 0-95-36-95-99 0-62 34-99 96-99zm-1 164c35 0 45-28 45-65 0-40-10-65-43-65-34 0-45 26-45 65 0 36 10 65 43 65" id="am"/><path fill="#333" d="M147 0L96-86 75-71V0H25v-261h50v150l67-79h53l-66 74L201 0h-54" id="an"/><g id="k"><use transform="matrix(0.04938271604938272,0,0,0.04938271604938272,0,0)" xlink:href="#al"/><use transform="matrix(0.04938271604938272,0,0,0.04938271604938272,9.481481481481481,0)" xlink:href="#am"/><use transform="matrix(0.04938271604938272,0,0,0.04938271604938272,20.296296296296298,0)" xlink:href="#an"/><use transform="matrix(0.04938271604938272,0,0,0.04938271604938272,30.172839506172842,0)" xlink:href="#ad"/><use transform="matrix(0.04938271604938272,0,0,0.04938271604938272,40.04938271604939,0)" xlink:href="#ae"/></g><path fill="#333" d="M137-103V0h-34v-103L8-248h37l75 118 75-118h37" id="ao"/><use transform="matrix(0.06172839506172839,0,0,0.06172839506172839,0,0)" xlink:href="#ao" id="l"/><path fill="#333" d="M195 0l-74-108L45 0H8l94-129-87-119h37l69 98 67-98h37l-84 118L233 0h-38" id="ap"/><use transform="matrix(0.06172839506172839,0,0,0.06172839506172839,0,0)" xlink:href="#ap" id="m"/><path fill="#333" d="M135-150c-39-12-60 13-60 57V0H25l-1-190h47c2 13-1 29 3 40 6-28 27-53 61-41v41" id="aq"/><path fill="#333" d="M12 0v-35l95-120H19v-35h142v35L67-36h103V0H12" id="ar"/><g id="n"><use transform="matrix(0.04938271604938272,0,0,0.04938271604938272,0,0)" xlink:href="#Z"/><use transform="matrix(0.04938271604938272,0,0,0.04938271604938272,12.790123456790125,0)" xlink:href="#aa"/><use transform="matrix(0.04938271604938272,0,0,0.04938271604938272,23.60493827160494,0)" xlink:href="#ab"/><use transform="matrix(0.04938271604938272,0,0,0.04938271604938272,29.481481481481485,0)" xlink:href="#ac"/><use transform="matrix(0.04938271604938272,0,0,0.04938271604938272,40.2962962962963,0)" xlink:href="#am"/><use transform="matrix(0.04938271604938272,0,0,0.04938271604938272,51.111111111111114,0)" xlink:href="#aq"/><use transform="matrix(0.04938271604938272,0,0,0.04938271604938272,58.0246913580247,0)" xlink:href="#af"/><use transform="matrix(0.04938271604938272,0,0,0.04938271604938272,62.96296296296297,0)" xlink:href="#ar"/><use transform="matrix(0.04938271604938272,0,0,0.04938271604938272,71.85185185185186,0)" xlink:href="#ad"/></g><g id="o"><use transform="matrix(0.04938271604938272,0,0,0.04938271604938272,0,0)" xlink:href="#ai"/><use transform="matrix(0.04938271604938272,0,0,0.04938271604938272,4.938271604938272,0)" xlink:href="#aj"/><use transform="matrix(0.04938271604938272,0,0,0.04938271604938272,15.753086419753087,0)" xlink:href="#ad"/><use transform="matrix(0.04938271604938272,0,0,0.04938271604938272,25.629629629629633,0)" xlink:href="#ae"/><use transform="matrix(0.04938271604938272,0,0,0.04938271604938272,36.44444444444445,0)" xlink:href="#ab"/><use transform="matrix(0.04938271604938272,0,0,0.04938271604938272,42.320987654320994,0)" xlink:href="#af"/><use transform="matrix(0.04938271604938272,0,0,0.04938271604938272,47.25925925925927,0)" xlink:href="#ab"/><use transform="matrix(0.04938271604938272,0,0,0.04938271604938272,53.135802469135804,0)" xlink:href="#ak"/></g><g id="p"><use transform="matrix(0.04938271604938272,0,0,0.04938271604938272,0,0)" xlink:href="#al"/><use transform="matrix(0.04938271604938272,0,0,0.04938271604938272,9.481481481481481,0)" xlink:href="#am"/><use transform="matrix(0.04938271604938272,0,0,0.04938271604938272,20.296296296296298,0)" xlink:href="#an"/><use transform="matrix(0.04938271604938272,0,0,0.04938271604938272,30.172839506172842,0)" xlink:href="#ad"/><use transform="matrix(0.04938271604938272,0,0,0.04938271604938272,40.04938271604939,0)" xlink:href="#ae"/></g><path fill="#333" d="M240-174c0 40-23 61-54 70L253 0h-59l-57-94H76V0H24v-248c93 4 217-23 216 74zM76-134c48-2 112 12 112-38 0-48-66-32-112-35v73" id="as"/><path fill="#333" d="M137-138c1-29-70-34-71-4 15 46 118 7 119 86 1 83-164 76-172 9l43-7c4 19 20 25 44 25 33 8 57-30 24-41C81-84 22-81 20-136c-2-80 154-74 161-7" id="at"/><g id="q"><use transform="matrix(0.04938271604938272,0,0,0.04938271604938272,0,0)" xlink:href="#as"/><use transform="matrix(0.04938271604938272,0,0,0.04938271604938272,12.790123456790125,0)" xlink:href="#ad"/><use transform="matrix(0.04938271604938272,0,0,0.04938271604938272,22.66666666666667,0)" xlink:href="#at"/><use transform="matrix(0.04938271604938272,0,0,0.04938271604938272,32.543209876543216,0)" xlink:href="#am"/><use transform="matrix(0.04938271604938272,0,0,0.04938271604938272,43.35802469135803,0)" xlink:href="#aa"/><use transform="matrix(0.04938271604938272,0,0,0.04938271604938272,54.17283950617284,0)" xlink:href="#aq"/><use transform="matrix(0.04938271604938272,0,0,0.04938271604938272,61.08641975308644,0)" xlink:href="#ag"/><use transform="matrix(0.04938271604938272,0,0,0.04938271604938272,70.96296296296298,0)" xlink:href="#ad"/></g><path fill="#333" d="M177-190C167-65 218 103 67 71c-23-6-38-20-44-43l32-5c15 47 100 32 89-28v-30C133-14 115 1 83 1 29 1 15-40 15-95c0-56 16-97 71-98 29-1 48 16 59 35 1-10 0-23 2-32h30zM94-22c36 0 50-32 50-73 0-42-14-75-50-75-39 0-46 34-46 75s6 73 46 73" id="au"/><path fill="#333" d="M24 0v-261h32V0H24" id="av"/><g id="r"><use transform="matrix(0.06172839506172839,0,0,0.06172839506172839,0,0)" xlink:href="#K"/><use transform="matrix(0.06172839506172839,0,0,0.06172839506172839,14.814814814814813,0)" xlink:href="#W"/><use transform="matrix(0.06172839506172839,0,0,0.06172839506172839,19.691358024691354,0)" xlink:href="#au"/><use transform="matrix(0.06172839506172839,0,0,0.06172839506172839,32.03703703703703,0)" xlink:href="#V"/><use transform="matrix(0.06172839506172839,0,0,0.06172839506172839,44.38271604938271,0)" xlink:href="#I"/><use transform="matrix(0.06172839506172839,0,0,0.06172839506172839,56.728395061728385,0)" xlink:href="#av"/><use transform="matrix(0.06172839506172839,0,0,0.06172839506172839,61.60493827160493,0)" xlink:href="#W"/><use transform="matrix(0.06172839506172839,0,0,0.06172839506172839,66.48148148148147,0)" xlink:href="#V"/><use transform="matrix(0.06172839506172839,0,0,0.06172839506172839,78.82716049382715,0)" xlink:href="#au"/></g><g id="s"><use transform="matrix(0.06172839506172839,0,0,0.06172839506172839,0,0)" xlink:href="#K"/><use transform="matrix(0.06172839506172839,0,0,0.06172839506172839,14.814814814814813,0)" xlink:href="#L"/><use transform="matrix(0.06172839506172839,0,0,0.06172839506172839,27.160493827160494,0)" xlink:href="#M"/><use transform="matrix(0.06172839506172839,0,0,0.06172839506172839,34.50617283950617,0)" xlink:href="#N"/><use transform="matrix(0.06172839506172839,0,0,0.06172839506172839,45.61728395061728,0)" xlink:href="#L"/><use transform="matrix(0.06172839506172839,0,0,0.06172839506172839,57.962962962962955,0)" xlink:href="#M"/></g><g id="t"><use transform="matrix(0.04938271604938272,0,0,0.04938271604938272,0,0)" xlink:href="#Z"/><use transform="matrix(0.04938271604938272,0,0,0.04938271604938272,12.790123456790125,0)" xlink:href="#aa"/><use transform="matrix(0.04938271604938272,0,0,0.04938271604938272,23.60493827160494,0)" xlink:href="#ab"/><use transform="matrix(0.04938271604938272,0,0,0.04938271604938272,29.481481481481485,0)" xlink:href="#ac"/><use transform="matrix(0.04938271604938272,0,0,0.04938271604938272,40.2962962962963,0)" xlink:href="#am"/><use transform="matrix(0.04938271604938272,0,0,0.04938271604938272,51.111111111111114,0)" xlink:href="#aq"/><use transform="matrix(0.04938271604938272,0,0,0.04938271604938272,58.0246913580247,0)" xlink:href="#af"/><use transform="matrix(0.04938271604938272,0,0,0.04938271604938272,62.96296296296297,0)" xlink:href="#ar"/><use transform="matrix(0.04938271604938272,0,0,0.04938271604938272,71.85185185185186,0)" xlink:href="#ad"/></g><path fill="#333" d="M24-248c120-7 223 5 221 122C244-46 201 0 124 0H24v-248zM76-40c74 7 117-18 117-86 0-67-45-88-117-82v168" id="aw"/><g id="u"><use transform="matrix(0.04938271604938272,0,0,0.04938271604938272,0,0)" xlink:href="#aw"/><use transform="matrix(0.04938271604938272,0,0,0.04938271604938272,12.790123456790125,0)" xlink:href="#ah"/><use transform="matrix(0.04938271604938272,0,0,0.04938271604938272,22.66666666666667,0)" xlink:href="#ab"/><use transform="matrix(0.04938271604938272,0,0,0.04938271604938272,28.54320987654322,0)" xlink:href="#ah"/></g><path fill="#333" d="M67-125c0 53 21 87 73 88 37 1 54-22 65-47l45 17C233-25 199 4 140 4 58 4 20-42 15-125 8-235 124-281 211-232c18 10 29 29 36 50l-46 12c-8-25-30-41-62-41-52 0-71 34-72 86" id="ax"/><g id="v"><use transform="matrix(0.04938271604938272,0,0,0.04938271604938272,0,0)" xlink:href="#ax"/><use transform="matrix(0.04938271604938272,0,0,0.04938271604938272,12.790123456790125,0)" xlink:href="#am"/><use transform="matrix(0.04938271604938272,0,0,0.04938271604938272,23.60493827160494,0)" xlink:href="#ae"/><use transform="matrix(0.04938271604938272,0,0,0.04938271604938272,34.41975308641975,0)" xlink:href="#ae"/><use transform="matrix(0.04938271604938272,0,0,0.04938271604938272,45.23456790123457,0)" xlink:href="#ad"/><use transform="matrix(0.04938271604938272,0,0,0.04938271604938272,55.111111111111114,0)" xlink:href="#ag"/><use transform="matrix(0.04938271604938272,0,0,0.04938271604938272,64.98765432098766,0)" xlink:href="#ab"/><use transform="matrix(0.04938271604938272,0,0,0.04938271604938272,70.8641975308642,0)" xlink:href="#af"/><use transform="matrix(0.04938271604938272,0,0,0.04938271604938272,75.80246913580248,0)" xlink:href="#am"/><use transform="matrix(0.04938271604938272,0,0,0.04938271604938272,86.61728395061729,0)" xlink:href="#ae"/></g><g id="w"><use transform="matrix(0.04938271604938272,0,0,0.04938271604938272,0,0)" xlink:href="#as"/><use transform="matrix(0.04938271604938272,0,0,0.04938271604938272,12.790123456790125,0)" xlink:href="#ad"/><use transform="matrix(0.04938271604938272,0,0,0.04938271604938272,22.66666666666667,0)" xlink:href="#ah"/><use transform="matrix(0.04938271604938272,0,0,0.04938271604938272,32.543209876543216,0)" xlink:href="#aj"/></g><path fill="#333" d="M275 0h-61l-44-196L126 0H64L0-248h53L97-49l45-199h58l43 199 44-199h52" id="ay"/><g id="x"><use transform="matrix(0.04938271604938272,0,0,0.04938271604938272,0,0)" xlink:href="#ay"/><use transform="matrix(0.04938271604938272,0,0,0.04938271604938272,16.39506172839506,0)" xlink:href="#aq"/><use transform="matrix(0.04938271604938272,0,0,0.04938271604938272,23.30864197530864,0)" xlink:href="#af"/><use transform="matrix(0.04938271604938272,0,0,0.04938271604938272,28.24691358024691,0)" xlink:href="#ab"/><use transform="matrix(0.04938271604938272,0,0,0.04938271604938272,34.123456790123456,0)" xlink:href="#ad"/></g><path fill="#333" d="M195-6C206 82 75 100 31 46c-4-6-6-13-8-21l49-6c3 16 16 24 34 25 40 0 42-37 40-79-11 22-30 35-61 35-53 0-70-43-70-97 0-56 18-96 73-97 30 0 46 14 59 34l2-30h47zm-90-29c32 0 41-27 41-63 0-35-9-62-40-62-32 0-39 29-40 63 0 36 9 62 39 62" id="az"/><path fill="#333" d="M67-93c0 74 22 123 53 168H70C40 30 18-18 18-93s22-123 52-168h50c-32 44-53 94-53 168" id="aA"/><path fill="#333" d="M102-93c0 74-22 123-52 168H0C30 29 54-18 53-93c0-74-22-123-53-168h50c30 45 52 94 52 168" id="aB"/><g id="y"><use transform="matrix(0.04938271604938272,0,0,0.04938271604938272,0,0)" xlink:href="#as"/><use transform="matrix(0.04938271604938272,0,0,0.04938271604938272,12.790123456790125,0)" xlink:href="#ad"/><use transform="matrix(0.04938271604938272,0,0,0.04938271604938272,22.66666666666667,0)" xlink:href="#az"/><use transform="matrix(0.04938271604938272,0,0,0.04938271604938272,33.48148148148149,0)" xlink:href="#af"/><use transform="matrix(0.04938271604938272,0,0,0.04938271604938272,38.41975308641976,0)" xlink:href="#at"/><use transform="matrix(0.04938271604938272,0,0,0.04938271604938272,48.296296296296305,0)" xlink:href="#ab"/><use transform="matrix(0.04938271604938272,0,0,0.04938271604938272,54.17283950617284,0)" xlink:href="#ad"/><use transform="matrix(0.04938271604938272,0,0,0.04938271604938272,64.0493827160494,0)" xlink:href="#aq"/><use transform="matrix(0.04938271604938272,0,0,0.04938271604938272,70.96296296296298,0)" xlink:href="#aA"/><use transform="matrix(0.04938271604938272,0,0,0.04938271604938272,76.83950617283952,0)" xlink:href="#as"/><use transform="matrix(0.04938271604938272,0,0,0.04938271604938272,89.62962962962965,0)" xlink:href="#ad"/><use transform="matrix(0.04938271604938272,0,0,0.04938271604938272,99.50617283950619,0)" xlink:href="#at"/><use transform="matrix(0.04938271604938272,0,0,0.04938271604938272,109.38271604938272,0)" xlink:href="#am"/><use transform="matrix(0.04938271604938272,0,0,0.04938271604938272,120.19753086419755,0)" xlink:href="#aa"/><use transform="matrix(0.04938271604938272,0,0,0.04938271604938272,131.01234567901236,0)" xlink:href="#aq"/><use transform="matrix(0.04938271604938272,0,0,0.04938271604938272,137.92592592592592,0)" xlink:href="#ag"/><use transform="matrix(0.04938271604938272,0,0,0.04938271604938272,147.80246913580248,0)" xlink:href="#ad"/><use transform="matrix(0.04938271604938272,0,0,0.04938271604938272,157.67901234567904,0)" xlink:href="#al"/><use transform="matrix(0.04938271604938272,0,0,0.04938271604938272,167.1604938271605,0)" xlink:href="#am"/><use transform="matrix(0.04938271604938272,0,0,0.04938271604938272,177.97530864197532,0)" xlink:href="#an"/><use transform="matrix(0.04938271604938272,0,0,0.04938271604938272,187.85185185185185,0)" xlink:href="#ad"/><use transform="matrix(0.04938271604938272,0,0,0.04938271604938272,197.7283950617284,0)" xlink:href="#ae"/><use transform="matrix(0.04938271604938272,0,0,0.04938271604938272,208.54320987654322,0)" xlink:href="#aB"/></g><g id="z"><use transform="matrix(0.04938271604938272,0,0,0.04938271604938272,0,0)" xlink:href="#Z"/><use transform="matrix(0.04938271604938272,0,0,0.04938271604938272,12.790123456790125,0)" xlink:href="#ae"/><use transform="matrix(0.04938271604938272,0,0,0.04938271604938272,23.60493827160494,0)" xlink:href="#ae"/><use transform="matrix(0.04938271604938272,0,0,0.04938271604938272,34.41975308641975,0)" xlink:href="#am"/><use transform="matrix(0.04938271604938272,0,0,0.04938271604938272,45.23456790123457,0)" xlink:href="#aa"/><use transform="matrix(0.04938271604938272,0,0,0.04938271604938272,56.04938271604939,0)" xlink:href="#ae"/><use transform="matrix(0.04938271604938272,0,0,0.04938271604938272,66.8641975308642,0)" xlink:href="#ag"/><use transform="matrix(0.04938271604938272,0,0,0.04938271604938272,76.74074074074075,0)" xlink:href="#ad"/></g><path fill="#333" d="M238-95c0 69-44 99-111 99C63 4 22-25 22-93v-155h51v151c-1 38 19 59 55 60 90 1 49-130 58-211h52v153" id="aC"/><g id="A"><use transform="matrix(0.04938271604938272,0,0,0.04938271604938272,0,0)" xlink:href="#aC"/><use transform="matrix(0.04938271604938272,0,0,0.04938271604938272,12.790123456790125,0)" xlink:href="#at"/><use transform="matrix(0.04938271604938272,0,0,0.04938271604938272,22.66666666666667,0)" xlink:href="#ad"/><use transform="matrix(0.04938271604938272,0,0,0.04938271604938272,32.543209876543216,0)" xlink:href="#aq"/></g><path fill="#333" d="M76-54c-1 42 2 86-19 110H24C36 42 46 24 48 0H25v-54h51" id="aD"/><g id="B"><use transform="matrix(0.04938271604938272,0,0,0.04938271604938272,0,0)" xlink:href="#Z"/><use transform="matrix(0.04938271604938272,0,0,0.04938271604938272,12.790123456790125,0)" xlink:href="#aD"/></g><g id="C"><use transform="matrix(0.04938271604938272,0,0,0.04938271604938272,0,0)" xlink:href="#ay"/><use transform="matrix(0.04938271604938272,0,0,0.04938271604938272,16.39506172839506,0)" xlink:href="#aq"/><use transform="matrix(0.04938271604938272,0,0,0.04938271604938272,23.30864197530864,0)" xlink:href="#af"/><use transform="matrix(0.04938271604938272,0,0,0.04938271604938272,28.24691358024691,0)" xlink:href="#ab"/><use transform="matrix(0.04938271604938272,0,0,0.04938271604938272,34.123456790123456,0)" xlink:href="#ad"/></g><path fill="#333" d="M182-130c37 4 62 22 62 59C244 23 116-4 24 0v-248c84 5 203-23 205 63 0 31-19 50-47 55zM76-148c40-3 101 13 101-30 0-44-60-28-101-31v61zm0 110c48-3 116 14 116-37 0-48-69-32-116-35v72" id="aE"/><g id="D"><use transform="matrix(0.04938271604938272,0,0,0.04938271604938272,0,0)" xlink:href="#aE"/><use transform="matrix(0.04938271604938272,0,0,0.04938271604938272,12.790123456790125,0)" xlink:href="#aD"/></g><g id="E"><use transform="matrix(0.04938271604938272,0,0,0.04938271604938272,0,0)" xlink:href="#as"/><use transform="matrix(0.04938271604938272,0,0,0.04938271604938272,12.790123456790125,0)" xlink:href="#ad"/><use transform="matrix(0.04938271604938272,0,0,0.04938271604938272,22.66666666666667,0)" xlink:href="#ah"/><use transform="matrix(0.04938271604938272,0,0,0.04938271604938272,32.543209876543216,0)" xlink:href="#aj"/></g><path fill="#333" d="M25 0v-261h50V0H25" id="aF"/><g id="F"><use transform="matrix(0.04938271604938272,0,0,0.04938271604938272,0,0)" xlink:href="#at"/><use transform="matrix(0.04938271604938272,0,0,0.04938271604938272,9.876543209876544,0)" xlink:href="#af"/><use transform="matrix(0.04938271604938272,0,0,0.04938271604938272,14.814814814814817,0)" xlink:href="#az"/><use transform="matrix(0.04938271604938272,0,0,0.04938271604938272,25.629629629629633,0)" xlink:href="#ae"/><use transform="matrix(0.04938271604938272,0,0,0.04938271604938272,36.44444444444445,0)" xlink:href="#ah"/><use transform="matrix(0.04938271604938272,0,0,0.04938271604938272,46.320987654320994,0)" xlink:href="#aF"/></g><path fill="#333" d="M15-22v-40l146-57-146-57v-40l181 69v56" id="aG"/><path fill="#333" d="M135-194c52 0 70 43 70 98 0 56-19 99-73 100-30 1-46-15-58-35L72 0H24l1-261h50v104c11-23 29-37 60-37zM114-30c31 0 40-27 40-66 0-37-7-63-39-63s-41 28-41 65c0 36 8 64 40 64" id="aH"/><g id="G"><use transform="matrix(0.04938271604938272,0,0,0.04938271604938272,0,0)" xlink:href="#ah"/><use transform="matrix(0.04938271604938272,0,0,0.04938271604938272,9.876543209876544,0)" xlink:href="#aG"/><use transform="matrix(0.04938271604938272,0,0,0.04938271604938272,20.24691358024692,0)" xlink:href="#aH"/></g></defs></g></svg>